<svg viewBox="820.8746 496.5551 237.2508 60.8898" width="5000" height="1283.2369796013334" xmlns="http://www.w3.org/2000/svg" xmlns:xlink="http://www.w3.org/1999/xlink" preserveAspectRatio="none"><defs></defs><style>.a6izo4zJpcolor {fill:#FFFFFF;fill-opacity:1;}.a6izo4zJpstrokeColor-str {stroke:#D9D9D9;stroke-opacity:1;}.aa6cqEEbYB90filter-floo {flood-color:#182145;flood-opacity:0.5;}.aD6z1nYkhcolor {fill:#FFFFFF;fill-opacity:1;}.aD6z1nYkhstrokeColor-str {stroke:#D9D9D9;stroke-opacity:1;}.aIptOCySncolors-0 {fill:#FFFFFF;fill-opacity:1;}.aIptOCySncolors-1 {fill:#D9D9D9;fill-opacity:1;}.aIptOCySncolors-2 {fill:#B4B4B4;fill-opacity:1;}</style><defs>
      <filter
        x="820.8746"
        y="501.8911"
        width="59.2297"
        height="28.0655"
        id="a6cqEEbYB9"
        filterUnits="userSpaceOnUse"
        primitiveUnits="userSpaceOnUse"
        color-interpolation-filters="sRGB">
        <feMerge><feMergeNode in="SourceGraphic" /></feMerge>
      </filter></defs><g opacity="1" transform="rotate(0 820.8746 501.8911)">
<svg width="59.2297" height="28.0655" x="820.8746" y="501.8911" version="1.1" preserveAspectRatio="none" viewBox="27.190998077392575 65.5 145.6179962158203 69">
  <g transform="matrix(1 0 0 1 0 0)" ><g><path d="M99.849 119.121c-12.64 0-22.923-10.276-22.923-22.906v-6.642h1.673v6.642c0 11.708 9.533 21.234 21.251 21.234 11.719 0 21.252-9.525 21.252-21.234v-6.642h1.673v6.642c-.001 12.63-10.285 22.906-22.926 22.906z" data-color="1" class="aIptOCySncolors-0"></path><path d="M100.686 118.984v13.526h-1.673v-13.526h1.673z" data-color="1" class="aIptOCySncolors-0"></path><path d="M116.778 129.482v5.018H82.922v-5.018h33.856z" data-color="1" class="aIptOCySncolors-0"></path><path d="M154.301 115.464c-10.204 0-18.506-8.297-18.506-18.494v-5.312h1.673v5.312c0 9.275 7.551 16.822 16.833 16.822 9.283 0 16.835-7.546 16.835-16.822v-5.312h1.673v5.312c0 10.197-8.303 18.494-18.508 18.494z" data-color="1" class="aIptOCySncolors-0"></path><path d="M155.139 115.187v10.821h-1.673v-10.821h1.673z" data-color="1" class="aIptOCySncolors-0"></path><path d="M167.845 123.084v5.018H140.76v-5.018h27.085z" data-color="1" class="aIptOCySncolors-0"></path><path d="M45.697 115.464c-10.204 0-18.506-8.297-18.506-18.494v-5.312h1.673v5.312c0 9.275 7.551 16.822 16.833 16.822 9.284 0 16.836-7.546 16.836-16.822v-5.312h1.673v5.312c-.001 10.197-8.303 18.494-18.509 18.494z" data-color="1" class="aIptOCySncolors-0"></path><path d="M46.535 115.187v10.821h-1.673v-10.821h1.673z" data-color="1" class="aIptOCySncolors-0"></path><path d="M59.241 123.084v5.018H32.156v-5.018h27.085z" data-color="1" class="aIptOCySncolors-0"></path><path d="M98.495 65.5a16.292 16.292 0 0 0-4.169.905v8.384h4.169V65.5z" data-color="2" class="aIptOCySncolors-1"></path><path d="M87.445 106.91a16.451 16.451 0 0 0 4.17 3.456v-7.126h-4.17v3.67z" data-color="2" class="aIptOCySncolors-1"></path><path d="M115.587 77.217H84.113a16.319 16.319 0 0 0-.595 3.104h32.664a16.212 16.212 0 0 0-.595-3.104z" data-color="2" class="aIptOCySncolors-1"></path><path d="M105.376 66.405a16.29 16.29 0 0 0-4.17-.905v9.289h4.17v-8.384z" data-color="2" class="aIptOCySncolors-1"></path><path d="M112.256 71.121a16.471 16.471 0 0 0-4.169-3.457v7.125h4.169v-3.668z" data-color="2" class="aIptOCySncolors-1"></path><path d="M91.615 67.664a16.472 16.472 0 0 0-4.17 3.456v3.669h4.17v-7.125z" data-color="2" class="aIptOCySncolors-1"></path><path d="M116.259 90.879v3.104H83.441v-3.104h32.818z" data-color="2" class="aIptOCySncolors-1"></path><path d="M94.326 111.625c1.321.473 2.716.786 4.169.905v-9.29h-4.169v8.385z" data-color="2" class="aIptOCySncolors-1"></path><path d="M84.114 100.814h31.473c.293-.999.497-2.036.595-3.104H83.519c.097 1.069.302 2.106.595 3.104z" data-color="2" class="aIptOCySncolors-1"></path><path d="M116.259 84.048v3.104H83.441v-3.104h32.818z" data-color="2" class="aIptOCySncolors-1"></path><path d="M101.206 112.53a16.258 16.258 0 0 0 4.17-.906v-8.384h-4.17v9.29z" data-color="2" class="aIptOCySncolors-1"></path><path d="M108.087 110.366a16.467 16.467 0 0 0 4.169-3.456v-3.669h-4.169v7.125z" data-color="2" class="aIptOCySncolors-1"></path><path d="M153.178 71.472a13.517 13.517 0 0 0-3.46.751v6.958h3.46v-7.709z" data-color="2" class="aIptOCySncolors-1"></path><path d="M144.007 105.84a13.668 13.668 0 0 0 3.461 2.869v-5.914h-3.461v3.045z" data-color="2" class="aIptOCySncolors-1"></path><path d="M167.363 81.196h-26.121a13.518 13.518 0 0 0-.493 2.576h27.109a13.693 13.693 0 0 0-.495-2.576z" data-color="2" class="aIptOCySncolors-1"></path><path d="M158.888 72.223a13.558 13.558 0 0 0-3.461-.751v7.709h3.461v-6.958z" data-color="2" class="aIptOCySncolors-1"></path><path d="M164.598 76.137a13.663 13.663 0 0 0-3.46-2.869v5.914h3.46v-3.045z" data-color="2" class="aIptOCySncolors-1"></path><path d="M147.468 73.268a13.664 13.664 0 0 0-3.461 2.869v3.045h3.461v-5.914z" data-color="2" class="aIptOCySncolors-1"></path><path d="M167.92 92.535v2.576h-27.236v-2.576h27.236z" data-color="2" class="aIptOCySncolors-1"></path><path d="M149.718 109.753a13.56 13.56 0 0 0 3.46.751v-7.71h-3.46v6.959z" data-color="2" class="aIptOCySncolors-1"></path><path d="M141.243 100.78h26.12c.243-.829.412-1.689.494-2.576h-27.109c.082.887.251 1.748.495 2.576z" data-color="2" class="aIptOCySncolors-1"></path><path d="M167.92 86.866v2.576h-27.236v-2.576h27.236z" data-color="2" class="aIptOCySncolors-1"></path><path d="M155.427 110.504a13.526 13.526 0 0 0 3.461-.752v-6.958h-3.461v7.71z" data-color="2" class="aIptOCySncolors-1"></path><path d="M161.138 108.708a13.642 13.642 0 0 0 3.46-2.869v-3.045h-3.46v5.914z" data-color="2" class="aIptOCySncolors-1"></path><path d="M44.574 71.472a13.517 13.517 0 0 0-3.46.751v6.958h3.46v-7.709z" data-color="2" class="aIptOCySncolors-1"></path><path d="M35.403 105.84a13.668 13.668 0 0 0 3.461 2.869v-5.914h-3.461v3.045z" data-color="2" class="aIptOCySncolors-1"></path><path d="M58.759 81.196H32.638a13.518 13.518 0 0 0-.493 2.576h27.109a13.613 13.613 0 0 0-.495-2.576z" data-color="2" class="aIptOCySncolors-1"></path><path d="M50.284 72.223a13.558 13.558 0 0 0-3.461-.751v7.709h3.461v-6.958z" data-color="2" class="aIptOCySncolors-1"></path><path d="M55.994 76.137a13.663 13.663 0 0 0-3.46-2.869v5.914h3.46v-3.045z" data-color="2" class="aIptOCySncolors-1"></path><path d="M38.864 73.268a13.664 13.664 0 0 0-3.461 2.869v3.045h3.461v-5.914z" data-color="2" class="aIptOCySncolors-1"></path><path d="M59.316 92.535v2.576H32.08v-2.576h27.236z" data-color="2" class="aIptOCySncolors-1"></path><path d="M41.114 109.753a13.56 13.56 0 0 0 3.46.751v-7.71h-3.46v6.959z" data-color="2" class="aIptOCySncolors-1"></path><path d="M32.639 100.78h26.12c.243-.829.412-1.689.494-2.576H32.145c.081.887.25 1.748.494 2.576z" data-color="2" class="aIptOCySncolors-1"></path><path d="M59.316 86.866v2.576H32.08v-2.576h27.236z" data-color="2" class="aIptOCySncolors-1"></path><path d="M46.824 110.504a13.526 13.526 0 0 0 3.461-.752v-6.958h-3.461v7.71z" data-color="2" class="aIptOCySncolors-1"></path><path d="M52.534 108.708a13.642 13.642 0 0 0 3.46-2.869v-3.045h-3.46v5.914z" data-color="2" class="aIptOCySncolors-1"></path></g></g>
</svg>
</g><g opacity="1" transform="rotate(0 848.4598 545.4449)">
<svg width="177.5124" height="12" x="848.4598" y="545.4449" version="1.1" preserveAspectRatio="none" viewBox="1.4 -29.68 553.96 37.44">
  <g transform="matrix(1 0 0 1 0 0)" class="a6izo4zJpcolor"><path id="id-6izo4zJp23" d="M12.44 0.40Q9.20 0.40 6.18-0.52Q3.16-1.44 1.40-2.96L1.40-2.96L3.20-7Q4.92-5.64 7.42-4.78Q9.92-3.92 12.44-3.92L12.44-3.92Q15.56-3.92 17.10-4.92Q18.64-5.92 18.64-7.56L18.64-7.56Q18.64-8.76 17.78-9.54Q16.92-10.32 15.60-10.76Q14.28-11.20 12-11.76L12-11.76Q8.80-12.52 6.82-13.28Q4.84-14.04 3.42-15.66Q2-17.28 2-20.04L2-20.04Q2-22.36 3.26-24.26Q4.52-26.16 7.06-27.28Q9.60-28.40 13.28-28.40L13.28-28.40Q15.84-28.40 18.32-27.76Q20.80-27.12 22.60-25.92L22.60-25.92L20.96-21.88Q19.12-22.96 17.12-23.52Q15.12-24.08 13.24-24.08L13.24-24.08Q10.16-24.08 8.66-23.04Q7.16-22 7.16-20.28L7.16-20.28Q7.16-19.08 8.02-18.32Q8.88-17.56 10.20-17.12Q11.52-16.68 13.80-16.12L13.80-16.12Q16.92-15.40 18.92-14.62Q20.92-13.84 22.34-12.24Q23.76-10.64 23.76-7.92L23.76-7.92Q23.76-5.60 22.50-3.72Q21.24-1.84 18.68-0.72Q16.12 0.40 12.44 0.40L12.44 0.40Z M30.12 0L30.12-28L35.32-28L35.32 0L30.12 0Z M63.80-28L68.96-28L68.96 0L64.68 0L49.24-18.96L49.24 0L44.08 0L44.08-28L48.36-28L63.80-9.04L63.80-28Z M96.80-5.60L96.80-14.32L101.72-14.32L101.72-3.16Q99.56-1.44 96.68-0.52Q93.80 0.40 90.76 0.40L90.76 0.40Q86.48 0.40 83.04-1.46Q79.60-3.32 77.64-6.60Q75.68-9.88 75.68-14L75.68-14Q75.68-18.12 77.64-21.40Q79.60-24.68 83.06-26.54Q86.52-28.40 90.84-28.40L90.84-28.40Q94.36-28.40 97.24-27.24Q100.12-26.08 102.08-23.84L102.08-23.84L98.80-20.64Q95.60-23.84 91.08-23.84L91.08-23.84Q88.12-23.84 85.82-22.60Q83.52-21.36 82.22-19.12Q80.92-16.88 80.92-14L80.92-14Q80.92-11.20 82.22-8.96Q83.52-6.72 85.82-5.44Q88.12-4.16 91.04-4.16L91.04-4.16Q94.32-4.16 96.80-5.60L96.80-5.60Z M127.08-4.40L140.28-4.40L140.28 0L119.64 0L119.64-3.48L130.76-14.04Q132.64-15.84 133.30-17.18Q133.96-18.52 133.96-19.84L133.96-19.84Q133.96-21.80 132.64-22.84Q131.32-23.88 128.76-23.88L128.76-23.88Q124.48-23.88 122.20-20.96L122.20-20.96L118.56-23.76Q120.20-25.96 122.98-27.18Q125.76-28.40 129.20-28.40L129.20-28.40Q133.76-28.40 136.48-26.24Q139.20-24.08 139.20-20.36L139.20-20.36Q139.20-18.08 138.24-16.08Q137.28-14.08 134.56-11.52L134.56-11.52L127.08-4.40Z M163.92-4.36L179.72-4.36L179.72 0L158.72 0L158.72-28L179.16-28L179.16-23.64L163.92-23.64L163.92-16.36L177.44-16.36L177.44-12.08L163.92-12.08L163.92-4.36Z M207.68 0L204.88-6.48L190.88-6.48L188.12 0L182.76 0L195.36-28L200.48-28L213.12 0L207.68 0ZM192.64-10.56L203.16-10.56L197.88-22.80L192.64-10.56Z M241.80 0L236.20 0L230.48-8.20Q230.12-8.16 229.40-8.16L229.40-8.16L223.08-8.16L223.08 0L217.88 0L217.88-28L229.40-28Q233.04-28 235.74-26.80Q238.44-25.60 239.88-23.36Q241.32-21.12 241.32-18.04L241.32-18.04Q241.32-14.88 239.78-12.60Q238.24-10.32 235.36-9.20L235.36-9.20L241.80 0ZM236.08-18.04Q236.08-20.72 234.32-22.16Q232.56-23.60 229.16-23.60L229.16-23.60L223.08-23.60L223.08-12.44L229.16-12.44Q232.56-12.44 234.32-13.90Q236.08-15.36 236.08-18.04L236.08-18.04Z M268.04-28L273.20-28L273.20 0L268.92 0L253.48-18.96L253.48 0L248.32 0L248.32-28L252.60-28L268.04-9.04L268.04-28Z M294.16 7.76L294.16-29.68L298.76-29.68L298.76 7.76L294.16 7.76Z M350.36 0L345.44 0L345.40-18.56L336.20-3.20L333.88-3.20L324.68-18.32L324.68 0L319.72 0L319.72-28L324-28L335.12-9.44L346.04-28L350.32-28L350.36 0Z M371.16 0.40Q365.36 0.40 362.12-2.86Q358.88-6.12 358.88-12.20L358.88-12.20L358.88-28L364.08-28L364.08-12.40Q364.08-4.16 371.20-4.16L371.20-4.16Q378.28-4.16 378.28-12.40L378.28-12.40L378.28-28L383.40-28L383.40-12.20Q383.40-6.12 380.18-2.86Q376.96 0.40 371.16 0.40L371.16 0.40Z M400.56 0.40Q397.32 0.40 394.30-0.52Q391.28-1.44 389.52-2.96L389.52-2.96L391.32-7Q393.04-5.64 395.54-4.78Q398.04-3.92 400.56-3.92L400.56-3.92Q403.68-3.92 405.22-4.92Q406.76-5.92 406.76-7.56L406.76-7.56Q406.76-8.76 405.90-9.54Q405.04-10.32 403.72-10.76Q402.40-11.20 400.12-11.76L400.12-11.76Q396.92-12.52 394.94-13.28Q392.96-14.04 391.54-15.66Q390.12-17.28 390.12-20.04L390.12-20.04Q390.12-22.36 391.38-24.26Q392.64-26.16 395.18-27.28Q397.72-28.40 401.40-28.40L401.40-28.40Q403.96-28.40 406.44-27.76Q408.92-27.12 410.72-25.92L410.72-25.92L409.08-21.88Q407.24-22.96 405.24-23.52Q403.24-24.08 401.36-24.08L401.36-24.08Q398.28-24.08 396.78-23.04Q395.28-22 395.28-20.28L395.28-20.28Q395.28-19.08 396.14-18.32Q397.00-17.56 398.32-17.12Q399.64-16.68 401.92-16.12L401.92-16.12Q405.04-15.40 407.04-14.62Q409.04-13.84 410.46-12.24Q411.88-10.64 411.88-7.92L411.88-7.92Q411.88-5.60 410.62-3.72Q409.36-1.84 406.80-0.72Q404.24 0.40 400.56 0.40L400.56 0.40Z M418.24 0L418.24-28L423.44-28L423.44 0L418.24 0Z M445.16 0.40Q440.92 0.40 437.50-1.46Q434.08-3.32 432.14-6.60Q430.20-9.88 430.20-14L430.20-14Q430.20-18.12 432.16-21.40Q434.12-24.68 437.54-26.54Q440.96-28.40 445.20-28.40L445.20-28.40Q448.64-28.40 451.48-27.20Q454.32-26 456.28-23.72L456.28-23.72L452.92-20.56Q449.88-23.84 445.44-23.84L445.44-23.84Q442.56-23.84 440.28-22.58Q438.00-21.32 436.72-19.08Q435.44-16.84 435.44-14L435.44-14Q435.44-11.16 436.72-8.92Q438.00-6.68 440.28-5.42Q442.56-4.16 445.44-4.16L445.44-4.16Q449.88-4.16 452.92-7.48L452.92-7.48L456.28-4.28Q454.32-2 451.46-0.80Q448.60 0.40 445.16 0.40L445.16 0.40Z M494.44-28L499.60-28L499.60 0L495.32 0L479.88-18.96L479.88 0L474.72 0L474.72-28L479.00-28L494.44-9.04L494.44-28Z M528.76-23.64L513.52-23.64L513.52-15.12L527.04-15.12L527.04-10.72L513.52-10.72L513.52 0L508.32 0L508.32-28L528.76-28L528.76-23.64Z M540.88 0L540.88-23.60L531.60-23.60L531.60-28L555.36-28L555.36-23.60L546.08-23.60L546.08 0L540.88 0Z"/></g>
</svg>
</g><g opacity="1" transform="rotate(0 896.2434 496.5551)">
<svg width="161.882" height="38.7374" x="896.2434" y="496.5551" version="1.1" preserveAspectRatio="none" viewBox="3.32 -28 117 28">
  <g transform="matrix(1 0 0 1 0 0)" class="aD6z1nYkhcolor"><path id="id-D6z1nYkh4" d="M34.88 0L28.80 0L28.76-16.80L20.52-2.96L17.60-2.96L9.40-16.44L9.40 0L3.32 0L3.32-28L8.68-28L19.16-10.60L29.48-28L34.80-28L34.88 0Z M60.68 0L51.72-11L47.96-7.08L47.96 0L41.52 0L41.52-28L47.96-28L47.96-14.92L60.36-28L67.56-28L55.96-15.52L68.24 0L60.68 0Z M75.00 0L75.00-22.72L66.04-22.72L66.04-28L90.44-28L90.44-22.72L81.48-22.72L81.48 0L75.00 0Z M113.88-28L120.32-28L108.20 0L101.80 0L89.72-28L96.72-28L105.24-8L113.88-28Z"/></g>
</svg>
</g></svg>