
        <svg xmlns="http://www.w3.org/2000/svg" xmlns:xlink="http://www.w3.org/1999/xlink" version="1.1" width="3064.5161290322576" height="3184.3317972350223" viewBox="0 0 3064.5161290322576 3184.3317972350223">
			
			<g transform="scale(9.216589861751151) translate(10, 10)">
				<defs id="SvgjsDefs6861"><linearGradient id="SvgjsLinearGradient6872"><stop id="SvgjsStop6873" stop-color="#8f5e25" offset="0"/><stop id="SvgjsStop6874" stop-color="#fbf4a1" offset="0.5"/><stop id="SvgjsStop6875" stop-color="#8f5e25" offset="1"/></linearGradient></defs><g id="SvgjsG6862" featureKey="rootContainer" transform="matrix(6.25,0,0,6.25,0.31249597668647766,13)" fill="#000"><path xmlns="http://www.w3.org/2000/svg" d="M24.95 0a25 25 0 1 0 25 25 25 25 0 0 0-25-25zm0 46.91a22 22 0 1 1 22-22 22 22 0 0 1-22 21.99z"/><path xmlns="http://www.w3.org/2000/svg" d="M24.95 3.65a21.3 21.3 0 1 0 21.3 21.3 21.33 21.33 0 0 0-21.3-21.3z"/></g><g id="SvgjsG6863" featureKey="symbolFeature-0" transform="matrix(1.1235955056179776,0,0,1.1235955056179776,99.82022471910112,49.57415625754367)" fill="#ffffff"><path xmlns="http://www.w3.org/2000/svg" d="M7,47c-0.829,0-1.5,0.671-1.5,1.5v3C5.5,52.329,6.171,53,7,53s1.5-0.671,1.5-1.5v-3C8.5,47.671,7.829,47,7,47z"/><path xmlns="http://www.w3.org/2000/svg" d="M12.733,41.603c-0.829,0-1.5,0.671-1.5,1.5v13.795c0,0.829,0.671,1.5,1.5,1.5s1.5-0.671,1.5-1.5V43.103  C14.233,42.274,13.562,41.603,12.733,41.603z"/><path xmlns="http://www.w3.org/2000/svg" d="M18.467,44.667c-0.829,0-1.5,0.671-1.5,1.5v7.667c0,0.829,0.671,1.5,1.5,1.5s1.5-0.671,1.5-1.5v-7.667  C19.967,45.338,19.295,44.667,18.467,44.667z"/><path xmlns="http://www.w3.org/2000/svg" d="M24.2,36.375c-0.829,0-1.5,0.671-1.5,1.5v24.25c0,0.829,0.671,1.5,1.5,1.5s1.5-0.671,1.5-1.5v-24.25  C25.7,37.046,25.029,36.375,24.2,36.375z"/><path xmlns="http://www.w3.org/2000/svg" d="M29.933,28.833c-0.829,0-1.5,0.671-1.5,1.5v39.333c0,0.829,0.671,1.5,1.5,1.5s1.5-0.671,1.5-1.5V30.333  C31.433,29.505,30.762,28.833,29.933,28.833z"/><path xmlns="http://www.w3.org/2000/svg" d="M35.667,37.333c-0.829,0-1.5,0.671-1.5,1.5v22.333c0,0.829,0.671,1.5,1.5,1.5s1.5-0.671,1.5-1.5V38.833  C37.167,38.005,36.495,37.333,35.667,37.333z"/><path xmlns="http://www.w3.org/2000/svg" d="M41.534,29.835c-0.87-0.024-1.505,0.662-1.51,1.49l-0.249,37.331c-0.005,0.828,0.662,1.504,1.49,1.51  c0.003,0,0.006,0,0.01,0c0.824,0,1.495-0.665,1.5-1.49l0.249-37.331C43.03,30.517,42.363,29.84,41.534,29.835z"/><path xmlns="http://www.w3.org/2000/svg" d="M47.133,20.849c-0.829,0-1.5,0.671-1.5,1.5v55.303c0,0.829,0.671,1.5,1.5,1.5s1.5-0.671,1.5-1.5V22.349  C48.633,21.52,47.962,20.849,47.133,20.849z"/><path xmlns="http://www.w3.org/2000/svg" d="M52.867,27.25c-0.829,0-1.5,0.671-1.5,1.5v42.5c0,0.829,0.671,1.5,1.5,1.5s1.5-0.671,1.5-1.5v-42.5  C54.367,27.921,53.695,27.25,52.867,27.25z"/><path xmlns="http://www.w3.org/2000/svg" d="M58.6,37.333c-0.829,0-1.5,0.671-1.5,1.5v22.333c0,0.829,0.671,1.5,1.5,1.5s1.5-0.671,1.5-1.5V38.833  C60.1,38.005,59.429,37.333,58.6,37.333z"/><path xmlns="http://www.w3.org/2000/svg" d="M64.333,31c-0.829,0-1.5,0.671-1.5,1.5v35c0,0.829,0.671,1.5,1.5,1.5s1.5-0.671,1.5-1.5v-35  C65.833,31.671,65.162,31,64.333,31z"/><path xmlns="http://www.w3.org/2000/svg" d="M70.067,39.632c-0.829,0-1.5,0.671-1.5,1.5v17.735c0,0.829,0.671,1.5,1.5,1.5s1.5-0.671,1.5-1.5V41.132  C71.567,40.304,70.896,39.632,70.067,39.632z"/><path xmlns="http://www.w3.org/2000/svg" d="M75.8,43.5c-0.829,0-1.5,0.671-1.5,1.5v10c0,0.829,0.671,1.5,1.5,1.5s1.5-0.671,1.5-1.5V45  C77.3,44.171,76.628,43.5,75.8,43.5z"/><path xmlns="http://www.w3.org/2000/svg" d="M81.533,41.735c-0.829,0-1.5,0.671-1.5,1.5v13.53c0,0.829,0.671,1.5,1.5,1.5s1.5-0.671,1.5-1.5v-13.53  C83.033,42.406,82.362,41.735,81.533,41.735z"/><path xmlns="http://www.w3.org/2000/svg" d="M87.267,45.99c-0.829,0-1.5,0.671-1.5,1.5v5.021c0,0.829,0.671,1.5,1.5,1.5s1.5-0.671,1.5-1.5V47.49  C88.767,46.661,88.095,45.99,87.267,45.99z"/><path xmlns="http://www.w3.org/2000/svg" d="M93,47.417c-0.829,0-1.5,0.671-1.5,1.5v2.167c0,0.829,0.671,1.5,1.5,1.5s1.5-0.671,1.5-1.5v-2.167  C94.5,48.088,93.829,47.417,93,47.417z"/></g><g id="SvgjsG6864" featureKey="nameFeature-0" transform="matrix(1.607079723707154,0,0,1.607079723707154,53.7404395572463,138.40368823276222)" fill="#ffffff"><path d="M4.4727 26.719 l-1.7773 0 l3.6328 -15.957 c3.3984 0 9.5313 -0.33203 14.375 0.3125 c4.2773 0.625 8.418 2.207 7.6953 7.3438 c-0.41016 3.1055 -2.793 6.2891 -5.3711 8.3008 l1.7578 0 c-0.46875 0.35156 -0.9375 0.72266 -1.4453 0.97656 l6.6797 12.383 l-11.719 0 l-4.8828 -9.5508 l-2.168 9.5508 l-9.8438 0 z M14.551 17.988 l-1.1914 5.0391 c4.707 0 7.3438 -5.0391 1.1914 -5.0391 z M60.6105078125 26.719 c1.1328 4.1016 -2.2656 8.9453 -5.4102 11.074 c-6.1719 4.043 -14.316 3.3984 -20.625 0.15625 l1.8359 -8.125 l3.0273 0 c0.39063 4.1992 9.7852 5.9375 10.742 1.7969 c0.46875 -2.0508 -6.8945 -2.6172 -9.3555 -4.5508 c-0.13672 -0.11719 -0.29297 -0.23438 -0.41016 -0.35156 l-1.7969 0 c-1.9531 -1.8359 -2.1289 -4.2773 -1.5625 -6.8164 c2.3828 -10.41 16.523 -11.445 24.688 -7.3242 l-1.8164 7.9102 l-3.0469 0 c0.19531 -2.9688 -8.7891 -5 -9.6289 -1.4258 c-0.56641 2.7734 8.5352 1.9531 11.055 6.3477 c0.21484 0.39063 0.39063 0.85938 0.50781 1.3086 l1.7969 0 z M67.529328125 27.266 c1.2695 -5.4492 2.5391 -10.918 3.8086 -16.367 l11.719 0 c7.0117 0 11.914 3.6328 8.6914 11.582 c-0.82031 1.9727 -1.9141 3.5547 -3.1641 4.7852 l1.7773 0 c-3.0664 2.9492 -7.3047 3.9453 -12.188 3.9453 l-2.0313 8.7695 l-9.7266 0 l2.9297 -12.715 l-1.8164 0 z M79.384828125 18.145 c-0.41016 1.9141 -0.87891 3.8672 -1.3086 5.8594 c4.8633 -0.25391 6.6797 -5.8594 1.3086 -5.8594 z M116.2258359375 26.719 l-2.9688 13.359 l-9.9023 0 l3.0469 -13.359 l-1.7773 0 l1.9727 -8.5547 l-7.8125 0 l1.7188 -7.4023 l25.352 0 l-1.6602 7.4023 l-7.793 0 l-1.9141 8.5547 l1.7383 0 z"/></g><g id="SvgjsG6865" featureKey="sloganFeature-0" transform="matrix(0.4318514851566702,0,0,0.4318514851566702,107.27942884418808,218.34178083715045)" fill="#ffffff"><path d="M4.458 11.0046 c-0.21816 0.12059 -0.44118 0.32306 -0.44118 0.90966 c0 0.45724 0.14779 0.70718 0.52734 0.89108 c0.38386 0.18598 0.81196 0.19957 0.83354 0.2001 l8.5334 0.03336 c1.4828 0 3.6956 0.9158 3.6956 3.4388 s-2.0564 3.4388 -3.4388 3.4388 l-12.499 0 l0 -2.3477 l12.488 0 c0.1024 -0.0035352 0.40818 -0.04211 0.66022 -0.18152 c0.21828 -0.12072 0.44128 -0.32318 0.44128 -0.90964 c0 -0.45724 -0.14779 -0.70718 -0.52734 -0.89108 c-0.3827 -0.18547 -0.81038 -0.19947 -0.8343 -0.20012 l-8.5278 -0.03793 l0 0.0045703 c-1.4875 0 -3.7004 -0.9158 -3.7004 -3.4388 s2.0564 -3.4388 3.4388 -3.4388 l12.499 0 l0 2.3477 l-12.488 0 c-0.10229 0.0035352 -0.40834 0.04211 -0.6605 0.18152 z M34.539 8.617 l2.3476 0 l0 11.407 l-2.3476 0 l0 -4.5299 l-11.242 0 l0 4.5299 l-2.3477 0 l0 -11.407 l2.3477 0 l0 4.5299 l11.242 0 l0 -4.5299 z M55.165000000000006 9.649 c0.91776 0.9099 0.9102 2.226 0.89856 4.2182 c-0.00091796 0.14832 -0.0016992 0.302 -0.0023438 0.46118 c-0.0044532 1.1823 -0.0075976 2.0366 -0.13172 2.757 c-0.10568 0.6142 -0.34974 1.4995 -1.2436 2.0954 c-1.1321 0.75466 -2.8232 0.77168 -6.5282 0.8087 c-0.57862 0.0057618 -1.1122 0.010078 -1.6046 0.010078 c-2.9354 0 -4.411 -0.15537 -5.3538 -1.0922 c-0.98198 -0.9757 -0.97648 -2.4126 -0.96838 -4.5876 c0.0090234 -2.4268 0.014512 -3.8916 1.2447 -4.801 c1.0614 -0.7845 2.6028 -0.80516 5.9798 -0.85054 l0.67396 -0.0092774 c4.2088 -0.060156 5.9508 -0.085136 7.0354 0.99024 z M53.731 13.854199999999999 c0.006543 -1.1448 0.013457 -2.3288 -0.20864 -2.5488 c-0.27556 -0.27322 -1.5123 -0.33638 -3.1584 -0.33638 c-0.67736 0 -1.4242 0.010723 -2.2018 0.021836 l-0.67606 0.0092774 c-2.4194 0.032442 -4.1674 0.055976 -4.625 0.39406 c-0.2888 0.21346 -0.2935 1.4744 -0.29898 2.9346 c-0.0050976 1.3559 -0.0099414 2.6366 0.28016 2.9248 c0.4554 0.45254 2.9138 0.42782 5.2914 0.40428 c2.7302 -0.027206 4.7028 -0.046954 5.258 -0.4171 c0.32686 -0.2179 0.33104 -1.3516 0.33692 -2.9208 c0.00052734 -0.16074 0.0014453 -0.316 0.0023632 -0.46588 z M79.84 8.703 l2.9056 0 l-9.017 12.023 l-3.5212 -4.6944 l-3.5206 4.6944 l-9.0178 -12.023 l2.9058 0 l6.1122 8.1492 l2.0678 -2.7574 l-4.044 -5.3918 l2.9058 0 l2.5912 3.4548 l2.5908 -3.4548 l2.9055 0 l-4.0436 5.3918 l2.0682 2.7574 z M108.357 17.557 l1.162 -0.017422 l0.034786 2.3242 l-1.1621 0.017402 c-0.18088 0.002754 -0.38542 0.0058984 -0.6087 0.0058984 c-1.614 0 -4.2026 -0.16008 -5.8378 -1.7712 c-0.72798 -0.71726 -1.1865 -1.629 -1.3698 -2.72 l-4.2054 0 l-0.016602 4.4896 l-2.3246 -0.0086328 l0.037402 -10.127 l0 -1.1635 l0.0043164 0 l0 -0.0043164 l1.1612 0.0043164 l10.951 0 c1.4728 0 3.6638 0.90678 3.6638 3.4048 c0 2.4982 -2.0362 3.405 -3.4048 3.405 l-3.4826 0 c0.12543 0.4252 0.32842 0.77924 0.61734 1.064 c1.1685 1.151 3.608 1.1146 4.7804 1.0969 z M96.3914 13.0714 l10.041 -0.000019531 c0.10148 -0.0035352 0.40426 -0.041718 0.6538 -0.17971 c0.21608 -0.11955 0.43686 -0.32006 0.43686 -0.90076 c0 -0.46692 -0.15799 -0.71972 -0.56382 -0.90166 c-0.36882 -0.16531 -0.77152 -0.17865 -0.77532 -0.17865 l-9.7922 0 l0 2.1608 z M129.147 10.9512 l-13.59 0.000019531 l0 2.1863 l9.0642 0.03375 l-0.0086328 2.3478 l-9.0556 -0.03375 l0 2.1782 l13.59 0 l0 2.3477 l-15.938 0 l0 -11.407 l15.938 0 l0 2.3476 z M135.278 11.0046 c-0.21816 0.12059 -0.44118 0.32306 -0.44118 0.90966 c0 0.45724 0.14779 0.70718 0.52734 0.89108 c0.38386 0.18598 0.81196 0.19957 0.83354 0.2001 l8.5334 0.03336 c1.4828 0 3.6956 0.9158 3.6956 3.4388 s-2.0564 3.4388 -3.4388 3.4388 l-12.499 0 l0 -2.3477 l12.488 0 c0.1024 -0.0035352 0.40818 -0.04211 0.66022 -0.18152 c0.21828 -0.12072 0.44128 -0.32318 0.44128 -0.90964 c0 -0.45724 -0.14779 -0.70718 -0.52734 -0.89108 c-0.3827 -0.18547 -0.81038 -0.19947 -0.8343 -0.20012 l-8.5278 -0.03793 l0 0.0045703 c-1.4875 0 -3.7004 -0.9158 -3.7004 -3.4388 s2.0564 -3.4388 3.4388 -3.4388 l12.499 0 l0 2.3477 l-12.488 0 c-0.10229 0.0035352 -0.40834 0.04211 -0.6605 0.18152 z M164.04399999999998 8.475 c1.4873 0 3.7 0.91594 3.7 3.4388 s-2.0564 3.4388 -3.4388 3.4388 l-10.172 0 l-0.016738 4.5342 l-2.3476 -0.0087696 l0.037794 -10.227 l0 -1.1757 l0.0043164 0 l0 -0.0043164 l1.1738 0.0043164 l11.059 0 z M164.956 12.823599999999999 c0.21816 -0.12072 0.4413 -0.32304 0.44118 -0.90952 c0 -0.47164 -0.15957 -0.72696 -0.56948 -0.91072 c-0.3725 -0.16701 -0.77926 -0.18049 -0.78304 -0.18049 l-9.8895 0 l0 2.1822 l10.141 0 c0.1024 -0.0035352 0.40818 -0.04211 0.66022 -0.18152 z M187.027 10.9512 l-13.59 0.000019531 l0 2.1863 l9.0642 0.03375 l-0.0086328 2.3478 l-9.0556 -0.03375 l0 2.1782 l13.59 0 l0 2.3477 l-15.938 0 l0 -11.407 l15.938 0 l0 2.3476 z M204.63 17.65 l0.040136 2.3242 l-1.1621 0.02002 c-0.015039 0.0002539 -1.0275 0.017129 -3.0076 0.017129 c-1.0032 0 -2.2546 -0.0044532 -3.7506 -0.017402 c-2.4132 -0.021054 -4.3428 -0.54212 -5.7348 -1.549 c-1.3835 -1.0007 -2.1454 -2.4562 -2.1454 -4.0986 c0 -1.6413 0.76854 -3.1002 2.164 -4.1074 c1.383 -0.99846 3.3616 -1.531 5.7218 -1.5402 c4.441 -0.017129 6.719 0.00027344 6.7416 0.00041016 l1.1622 0.0091602 l-0.01832 2.3246 l-1.1622 -0.0091602 c-0.022364 -0.0002539 -2.2892 -0.01752 -6.7144 -0.00039062 c-3.4358 0.01334 -5.5702 1.2866 -5.5702 3.3232 c0 0.90194 0.39812 1.6473 1.1831 2.215 c0.97936 0.70836 2.4984 1.0916 4.3926 1.1081 c4.4144 0.038574 6.6758 0.00089844 6.698 0.00050782 z M208.02919999999997 8.475 l15.938 0 l0 2.3477 l-6.7954 0 l0 9.0932 l-2.3476 0 l0 -9.0932 l-6.7946 0 l0 -2.3477 z"/></g><g id="SvgjsG6866" featureKey="sloganFeature-1" transform="matrix(0.4318514851566702,0,0,0.4318514851566702,132.27933257526274,233.34178083715045)" fill="#ffffff"><path d="M15.997 17.557 l1.162 -0.017422 l0.034786 2.3242 l-1.1621 0.017402 c-0.18088 0.002754 -0.38542 0.0058984 -0.6087 0.0058984 c-1.614 0 -4.2026 -0.16008 -5.8378 -1.7712 c-0.72798 -0.71726 -1.1865 -1.629 -1.3698 -2.72 l-4.2054 0 l-0.016602 4.4896 l-2.3246 -0.0086328 l0.037402 -10.127 l0 -1.1635 l0.0043164 0 l0 -0.0043164 l1.1612 0.0043164 l10.951 0 c1.4728 0 3.6638 0.90678 3.6638 3.4048 c0 2.4982 -2.0362 3.405 -3.4048 3.405 l-3.4826 0 c0.12543 0.4252 0.32842 0.77924 0.61734 1.064 c1.1685 1.151 3.608 1.1146 4.7804 1.0969 z M4.0314 13.0714 l10.041 -0.000019531 c0.10148 -0.0035352 0.40426 -0.041718 0.6538 -0.17971 c0.21608 -0.11955 0.43686 -0.32006 0.43686 -0.90076 c0 -0.46692 -0.15799 -0.71972 -0.56382 -0.90166 c-0.36882 -0.16531 -0.77152 -0.17865 -0.77532 -0.17865 l-9.7922 0 l0 2.1608 z M23.637999999999998 11.0046 c-0.21816 0.12059 -0.44118 0.32306 -0.44118 0.90966 c0 0.45724 0.14779 0.70718 0.52734 0.89108 c0.38386 0.18598 0.81196 0.19957 0.83354 0.2001 l8.5334 0.03336 c1.4828 0 3.6956 0.9158 3.6956 3.4388 s-2.0564 3.4388 -3.4388 3.4388 l-12.499 0 l0 -2.3477 l12.488 0 c0.1024 -0.0035352 0.40818 -0.04211 0.66022 -0.18152 c0.21828 -0.12072 0.44128 -0.32318 0.44128 -0.90964 c0 -0.45724 -0.14779 -0.70718 -0.52734 -0.89108 c-0.3827 -0.18547 -0.81038 -0.19947 -0.8343 -0.20012 l-8.5278 -0.03793 l0 0.0045703 c-1.4875 0 -3.7004 -0.9158 -3.7004 -3.4388 s2.0564 -3.4388 3.4388 -3.4388 l12.499 0 l0 2.3477 l-12.488 0 c-0.10229 0.0035352 -0.40834 0.04211 -0.6605 0.18152 z M52.404 8.475 c1.4873 0 3.7 0.91594 3.7 3.4388 s-2.0564 3.4388 -3.4388 3.4388 l-10.172 0 l-0.016738 4.5342 l-2.3476 -0.0087696 l0.037794 -10.227 l0 -1.1757 l0.0043164 0 l0 -0.0043164 l1.1738 0.0043164 l11.059 0 z M53.316 12.823599999999999 c0.21816 -0.12072 0.4413 -0.32304 0.44118 -0.90952 c0 -0.47164 -0.15957 -0.72696 -0.56948 -0.91072 c-0.3725 -0.16701 -0.77926 -0.18049 -0.78304 -0.18049 l-9.8895 0 l0 2.1822 l10.141 0 c0.1024 -0.0035352 0.40818 -0.04211 0.66022 -0.18152 z M59.449200000000005 8.475 l15.938 0 l0 2.3477 l-6.7954 0 l0 9.0932 l-2.3476 0 l0 -9.0932 l-6.7946 0 l0 -2.3477 z M81.097 19.59116 l-2.3478 0.000019531 l0 -2.375 l2.3477 0 l0 2.375 z M86.7738 20.02461 l-2.3246 0 l0 -11.295 l2.3246 0 l0 11.295 z M105.06500000000001 9.649 c0.91776 0.9099 0.9102 2.226 0.89856 4.2182 c-0.00091796 0.14832 -0.0016992 0.302 -0.0023438 0.46118 c-0.0044532 1.1823 -0.0075976 2.0366 -0.13172 2.757 c-0.10568 0.6142 -0.34974 1.4995 -1.2436 2.0954 c-1.1321 0.75466 -2.8232 0.77168 -6.5282 0.8087 c-0.57862 0.0057618 -1.1122 0.010078 -1.6046 0.010078 c-2.9354 0 -4.411 -0.15537 -5.3538 -1.0922 c-0.98198 -0.9757 -0.97648 -2.4126 -0.96838 -4.5876 c0.0090234 -2.4268 0.014512 -3.8916 1.2447 -4.801 c1.0614 -0.7845 2.6028 -0.80516 5.9798 -0.85054 l0.67396 -0.0092774 c4.2088 -0.060156 5.9508 -0.085136 7.0354 0.99024 z M103.631 13.854199999999999 c0.006543 -1.1448 0.013457 -2.3288 -0.20864 -2.5488 c-0.27556 -0.27322 -1.5123 -0.33638 -3.1584 -0.33638 c-0.67736 0 -1.4242 0.010723 -2.2018 0.021836 l-0.67606 0.0092774 c-2.4194 0.032442 -4.1674 0.055976 -4.625 0.39406 c-0.2888 0.21346 -0.2935 1.4744 -0.29898 2.9346 c-0.0050976 1.3559 -0.0099414 2.6366 0.28016 2.9248 c0.4554 0.45254 2.9138 0.42782 5.2914 0.40428 c2.7302 -0.027206 4.7028 -0.046954 5.258 -0.4171 c0.32686 -0.2179 0.33104 -1.3516 0.33692 -2.9208 c0.00052734 -0.16074 0.0014453 -0.316 0.0023632 -0.46588 z"/></g>
			</g>
		</svg>
	